<?xml version="1.0" standalone="no"?>
<!DOCTYPE svg PUBLIC "-//W3C//DTD SVG 20010904//EN"
 "http://www.w3.org/TR/2001/REC-SVG-20010904/DTD/svg10.dtd">
<svg version="1.0" xmlns="http://www.w3.org/2000/svg"
 width="1180.000000pt" height="873.000000pt" viewBox="0 0 1180.000000 873.000000"
 preserveAspectRatio="xMidYMid meet">

<g transform="translate(0.000000,873.000000) scale(0.100000,-0.100000)"
fill="#000000" stroke="none">
<path d="M1708 7820 c-46 -14 -90 -51 -109 -94 -17 -38 -19 -74 -19 -476 0
-285 -4 -430 -10 -420 -6 10 -10 -192 -10 -579 0 -581 0 -596 21 -637 29 -60
77 -100 139 -113 28 -6 118 -11 200 -11 l150 0 0 -165 0 -164 570 -1 c551 0
572 -1 614 -20 39 -19 115 -85 116 -102 0 -5 0 -13 0 -19 0 -6 7 -8 16 -5 12
5 15 2 10 -10 -3 -8 -6 -20 -6 -25 0 -6 -3 -8 -7 -6 -5 3 -3 -65 2 -151 6 -87
11 -138 13 -114 2 28 8 42 18 42 8 0 14 6 14 13 0 8 4 7 11 -3 9 -12 10 -11 6
8 -3 12 -1 22 4 22 5 0 9 9 9 20 0 18 7 20 70 20 l69 0 4 -72 c2 -40 3 -5 3
79 -1 83 2 147 5 141 3 -5 9 0 12 11 3 14 1 19 -6 14 -7 -4 -2 6 11 21 12 16
22 33 22 38 0 11 50 55 91 80 23 14 80 17 479 21 248 3 454 8 458 12 4 4 -14
5 -39 1 -53 -8 -80 0 -72 20 4 11 17 12 59 8 36 -5 54 -3 54 4 0 6 -12 13 -27
15 -20 3 -17 4 13 6 41 1 71 20 56 36 -4 5 -1 5 6 1 14 -9 16 3 2 24 -9 13
-11 13 -20 0 -6 -9 -10 -10 -10 -3 0 6 5 15 12 19 16 10 39 -26 32 -50 -5 -16
0 -13 25 11 17 17 31 39 31 48 0 9 5 13 11 10 6 -4 9 0 7 11 -2 12 2 18 11 16
7 -1 25 5 38 14 20 13 23 18 12 25 -12 7 -12 9 0 9 8 0 11 6 7 16 -4 9 -2 13
5 8 8 -4 9 1 4 17 -4 18 -4 20 4 10 7 -11 13 -12 23 -4 20 15 50 -18 31 -36
-13 -11 -18 -3 -14 22 2 15 -18 6 -33 -15 -18 -26 -13 -36 9 -18 9 8 15 8 15
2 0 -6 -9 -14 -20 -17 -11 -3 -20 -10 -20 -14 0 -5 -13 -14 -30 -21 -26 -11
-42 -30 -25 -30 9 0 70 44 73 52 2 5 14 5 26 2 18 -4 25 -1 29 15 3 15 13 21
31 21 16 0 26 6 26 15 0 8 -4 15 -10 15 -5 0 -10 4 -10 9 0 5 8 7 18 5 18 -4
50 11 41 20 -5 5 -19 6 -209 8 -69 1 -143 3 -165 4 -22 1 -598 2 -1280 3 -682
1 -1245 5 -1252 9 -8 5 -12 57 -15 157 l-3 150 -157 5 c-133 4 -160 8 -175 23
-14 13 -15 21 -7 35 10 15 32 17 173 20 l161 2 0 28 c0 15 1 264 3 554 3 394
7 531 16 542 7 8 11 20 10 28 -2 17 23 78 33 78 4 0 8 7 8 15 0 16 34 38 43
28 4 -3 9 2 13 11 4 9 17 16 33 16 15 0 31 3 34 7 4 3 350 6 770 6 585 0 772
-3 801 -13 26 -8 40 -9 45 -2 4 7 80 10 214 9 173 -1 210 1 217 13 8 13 10 13
10 0 0 -22 50 -24 66 -3 8 11 13 13 14 6 0 -7 6 -13 14 -13 8 0 17 6 19 13 4
10 6 10 6 0 1 -8 15 -13 35 -13 19 0 37 6 39 13 4 10 6 10 6 0 1 -8 15 -13 36
-13 21 0 35 5 35 13 0 7 3 8 8 2 11 -16 28 -17 187 -18 l150 0 -115 -7 -115
-6 137 -1 c98 -1 137 2 135 11 -1 6 15 12 41 14 28 2 42 -1 42 -9 0 -9 30 -11
121 -6 66 3 122 7 125 9 2 2 4 115 4 251 1 234 0 249 -20 285 -12 20 -37 49
-57 62 l-37 25 -1760 2 c-969 1 -1773 -2 -1788 -7z m3273 -2367 c-12 -20 -14
-14 -5 12 4 9 9 14 11 11 3 -2 0 -13 -6 -23z m-235 -106 c3 -3 -6 -4 -20 -3
-15 2 -29 6 -32 9 -4 3 6 5 20 3 14 -1 29 -5 32 -9z m-85 -44 c-12 -20 -14
-14 -5 12 4 9 9 14 11 11 3 -2 0 -13 -6 -23z m49 23 c0 -2 -8 -10 -17 -17 -16
-13 -17 -12 -4 4 13 16 21 21 21 13z m-112 -13 c-11 -3 -15 -10 -11 -21 6 -14
5 -15 -9 -2 -17 16 -6 31 22 29 11 -1 11 -2 -2 -6z m72 -68 c0 -5 -5 -3 -10 5
-5 8 -10 20 -10 25 0 6 5 3 10 -5 5 -8 10 -19 10 -25z m-120 -35 c0 -5 -2 -10
-4 -10 -3 0 -8 5 -11 10 -3 6 -1 10 4 10 6 0 11 -4 11 -10z"/>
<path d="M3412 7080 c-23 -5 -48 -12 -55 -17 -6 -4 -17 -8 -24 -9 -7 -1 -32
-18 -55 -37 -101 -83 -131 -144 -132 -267 -1 -74 3 -92 28 -145 32 -66 86
-122 154 -162 63 -37 194 -44 274 -13 74 28 146 93 183 167 27 52 30 67 30
153 0 85 -3 100 -28 145 -48 87 -118 148 -197 173 -53 16 -130 21 -178 12z
m93 -284 c88 -49 86 -64 -18 -121 -65 -36 -77 -26 -77 70 0 68 5 81 30 84 3 0
32 -14 65 -33z"/>
<path d="M9763 6793 l-33 -4 0 -92 c-3 -602 -2 -928 1 -931 5 -5 188 -8 372
-7 l117 1 0 448 c0 510 0 505 -81 559 -42 27 -46 28 -193 29 -83 1 -166 0
-183 -3z"/>
<path d="M9733 4388 c5 -1411 3 -1485 -37 -1543 -12 -16 -26 -39 -32 -50 -6
-11 -37 -33 -68 -49 -53 -26 -69 -29 -219 -38 -89 -4 -342 -8 -562 -8 -220 0
-575 -2 -790 -5 -381 -4 -1478 -8 -1502 -6 -6 0 -14 9 -16 19 -4 14 -5 14 -6
-3 -1 -17 -8 -20 -39 -19 -21 0 -44 4 -51 8 -6 4 -18 3 -26 -4 -7 -6 -16 -7
-19 -2 -3 5 -16 7 -30 5 -13 -3 -27 0 -31 7 -5 8 -10 7 -18 -3 -14 -18 -63
-35 -53 -19 4 7 -3 8 -24 2 -21 -6 -30 -5 -30 3 0 7 -4 6 -9 -2 -7 -11 -13
-12 -23 -3 -9 7 -19 8 -28 2 -22 -14 -53 -12 -44 2 5 7 3 8 -6 3 -10 -6 -12
-4 -7 9 4 11 3 15 -4 11 -6 -4 -8 -13 -5 -21 3 -7 0 -16 -6 -20 -7 -5 -8 -3
-3 5 5 9 1 12 -11 10 -11 -2 -25 0 -32 4 -21 14 -24 -16 -20 -157 3 -128 5
-136 34 -182 17 -29 46 -58 69 -71 l40 -23 1983 0 c1929 0 1984 1 2020 19 47
24 77 56 97 103 13 33 15 193 15 1408 0 907 -3 1370 -10 1370 -6 0 -10 103
-10 290 l0 290 -246 0 -247 0 6 -1342z"/>
<path d="M5288 5503 c7 -3 16 -2 19 1 4 3 -2 6 -13 5 -11 0 -14 -3 -6 -6z"/>
<path d="M1705 5114 c-40 -21 -64 -43 -84 -79 -13 -25 -17 -86 -25 -400 -4
-203 -9 -545 -10 -760 -1 -347 1 -393 16 -420 24 -44 71 -85 114 -100 46 -15
300 -21 317 -6 9 7 10 47 4 148 -4 76 -3 350 3 608 6 259 12 595 13 748 l2
277 -160 0 c-126 0 -166 -3 -190 -16z"/>
<path d="M3522 4804 c-7 -8 -9 -14 -5 -15 4 0 19 -2 33 -5 17 -3 21 -1 11 5
-7 5 -16 13 -20 19 -4 6 -11 5 -19 -4z"/>
<path d="M3602 4650 c0 -14 2 -19 5 -12 2 6 2 18 0 25 -3 6 -5 1 -5 -13z"/>
<path d="M3602 4595 c0 -16 2 -22 5 -12 2 9 2 23 0 30 -3 6 -5 -1 -5 -18z"/>
<path d="M3392 4510 c0 -14 2 -19 5 -12 2 6 2 18 0 25 -3 6 -5 1 -5 -13z"/>
<path d="M6943 2703 c15 -2 37 -2 50 0 12 2 0 4 -28 4 -27 0 -38 -2 -22 -4z"/>
<path d="M7228 2703 c6 -2 18 -2 25 0 6 3 1 5 -13 5 -14 0 -19 -2 -12 -5z"/>
<path d="M7513 2703 c15 -2 37 -2 50 0 12 2 0 4 -28 4 -27 0 -38 -2 -22 -4z"/>
</g>
</svg>
