<?xml version="1.0" standalone="no"?>
<!DOCTYPE svg PUBLIC "-//W3C//DTD SVG 20010904//EN"
 "http://www.w3.org/TR/2001/REC-SVG-20010904/DTD/svg10.dtd">
<svg version="1.0" xmlns="http://www.w3.org/2000/svg"
 width="906.000000pt" height="701.000000pt" viewBox="0 0 906.000000 701.000000"
 preserveAspectRatio="xMidYMid meet">

<g transform="translate(0.000000,701.000000) scale(0.100000,-0.100000)"
fill="#000000" stroke="none">
<path d="M4690 6091 c0 -24 -17 -30 -52 -20 -20 5 -32 3 -42 -7 -8 -8 -19 -14
-24 -14 -6 0 -12 -4 -14 -8 -1 -5 -18 -12 -35 -15 -26 -5 -33 -3 -33 9 0 11
-6 14 -16 10 -9 -3 -18 -6 -20 -6 -2 0 -4 -6 -4 -13 0 -8 -7 -14 -15 -15 -8
-1 -22 -3 -30 -4 -8 -1 -15 -7 -15 -15 0 -7 -7 -13 -15 -13 -8 0 -15 5 -15 10
0 6 -9 10 -20 10 -22 0 -28 -25 -7 -33 9 -4 9 -6 -1 -6 -7 -1 -23 4 -34 10
-13 7 -18 7 -14 1 3 -6 1 -14 -4 -17 -7 -5 -5 -12 7 -20 15 -12 20 -12 31 3
12 15 13 14 7 -10 -6 -23 -3 -28 19 -34 14 -3 26 -10 26 -14 0 -5 10 -12 22
-16 12 -3 28 -13 36 -20 7 -8 18 -12 23 -9 5 4 9 2 9 -3 0 -4 19 -19 43 -32
23 -12 49 -28 57 -35 8 -7 44 -27 80 -46 35 -19 71 -40 78 -46 7 -7 18 -13 23
-13 5 0 33 -15 62 -34 59 -38 638 -375 1022 -595 50 -28 97 -55 105 -60 8 -5
94 -56 190 -112 96 -56 200 -116 230 -134 67 -39 412 -240 458 -267 91 -51
156 -109 183 -160 26 -50 25 -133 -1 -175 -11 -18 -21 -33 -23 -33 -2 0 5 25
15 56 20 59 18 95 -8 145 -17 35 -81 94 -100 94 -8 0 -19 7 -24 15 -5 8 -27
24 -48 35 -49 25 -132 72 -322 184 -80 46 -167 96 -195 111 -27 14 -61 33 -75
42 -44 28 -133 77 -197 109 -35 17 -63 34 -63 39 0 5 -13 11 -30 15 -16 4 -33
12 -37 18 -10 15 -87 57 -104 57 -8 0 -20 9 -27 20 -7 11 -19 20 -28 20 -13 0
-15 -7 -10 -34 11 -57 -9 -82 -40 -52 -15 16 -19 46 -5 46 14 0 20 37 8 49 -6
6 -7 11 -1 11 5 0 -6 9 -24 20 -41 25 -50 25 -73 -2 -11 -11 -19 -17 -19 -11
0 5 -18 10 -40 11 -23 2 -40 -2 -40 -8 0 -5 -9 -10 -20 -10 -16 0 -20 -7 -20
-30 l0 -30 -80 0 -80 0 0 -40 0 -40 -60 0 c-49 0 -62 -3 -67 -17 -4 -10 -10
-21 -15 -24 -5 -3 16 -4 47 -1 51 4 55 3 55 -17 0 -11 5 -21 10 -21 6 0 10
-13 10 -30 0 -16 -4 -30 -10 -30 -5 0 -12 -11 -16 -25 -3 -14 -13 -25 -21 -25
-8 0 -17 -9 -20 -20 -3 -11 -12 -20 -20 -20 -8 0 -17 -9 -20 -20 -10 -40 -33
-22 -33 25 0 38 -3 45 -19 45 -11 0 -22 6 -25 13 -5 10 -7 10 -12 0 -3 -7 -19
-13 -35 -13 -16 0 -29 -4 -29 -10 0 -5 -9 -10 -21 -10 -18 0 -20 4 -13 32 6
29 5 31 -10 19 -9 -7 -16 -9 -16 -3 0 5 -7 12 -15 16 -13 4 -14 2 -5 -14 8
-15 8 -20 -2 -20 -9 0 -9 -3 2 -10 8 -5 10 -10 4 -10 -7 0 -9 -11 -6 -25 3
-16 11 -25 23 -25 15 0 19 -7 19 -40 l0 -40 -240 0 -240 0 0 -80 0 -80 -80 0
-80 0 0 -80 0 -80 -40 0 -40 0 0 -40 0 -40 -40 0 c-22 0 -40 -4 -40 -10 0 -5
7 -10 15 -10 8 0 15 -4 15 -10 0 -5 -12 -10 -27 -10 -39 0 -73 -11 -73 -22 0
-19 -29 -38 -59 -38 -28 0 -31 -3 -31 -30 0 -28 -2 -30 -40 -30 l-40 0 0 -40
0 -40 -50 0 c-43 0 -50 -3 -50 -20 0 -18 -7 -20 -70 -20 l-70 0 0 -40 c0 -38
-2 -40 -30 -40 -23 0 -30 4 -30 20 0 16 -7 20 -30 20 -28 0 -30 -2 -30 -40 0
-33 -3 -40 -20 -40 -16 0 -20 -7 -20 -35 0 -33 2 -35 38 -37 20 -1 44 -2 52
-4 8 -1 23 -2 33 -3 9 -1 17 -6 17 -12 0 -5 -4 -7 -10 -4 -5 3 -10 1 -10 -4 0
-16 12 -13 38 8 27 24 28 31 2 31 -23 0 -27 15 -6 23 7 3 21 -4 31 -15 13 -16
19 -18 25 -8 4 7 25 13 47 14 l39 2 -2 -39 c-1 -34 -14 -68 -14 -39 0 9 -5 9
-20 0 -11 -7 -20 -18 -20 -25 0 -7 -6 -10 -12 -8 -22 8 -61 -19 -68 -45 -7
-24 -5 -25 30 -22 31 3 38 0 49 -24 9 -20 9 -30 2 -32 -20 -7 -12 -30 9 -25
23 6 52 -20 44 -40 -4 -11 2 -16 18 -19 28 -4 36 -34 11 -41 -10 -3 -1 -3 20
0 30 4 36 3 31 -10 -3 -8 -1 -18 5 -22 7 -3 8 0 5 9 -9 24 42 40 80 25 16 -7
25 -14 19 -16 -5 -2 -8 -17 -5 -33 2 -16 8 -27 14 -24 5 3 6 15 3 27 -5 19 -4
19 5 5 6 -10 7 -25 1 -41 -5 -14 -6 -29 0 -38 5 -8 9 -9 9 -3 0 6 13 11 29 12
23 0 30 -5 36 -25 6 -24 7 -24 30 -9 21 14 24 14 19 1 -4 -10 0 -15 10 -15 9
0 16 -8 16 -21 0 -11 4 -18 9 -14 5 3 12 1 16 -5 4 -6 11 -8 16 -5 5 4 15 0
23 -8 12 -11 11 -15 -5 -25 -16 -10 -19 -9 -19 3 0 8 -5 15 -10 15 -7 0 -7 -7
0 -20 8 -16 15 -18 29 -11 20 11 61 4 61 -10 0 -5 6 -9 14 -9 9 0 12 -8 8 -25
-2 -15 0 -25 7 -25 6 0 11 5 11 10 0 14 27 12 33 -2 4 -10 6 -10 6 0 2 21 31
13 31 -8 0 -16 7 -20 34 -20 26 0 36 -5 41 -21 5 -16 10 -18 21 -8 11 9 15 5
21 -22 l7 -34 7 30 7 30 1 -32 c1 -28 22 -53 45 -53 14 0 4 18 -16 29 l-23 11
24 -6 c16 -4 21 -3 17 5 -5 7 -1 8 10 4 11 -4 13 -8 6 -11 -7 -2 -9 -9 -5 -15
8 -12 9 -18 12 -38 0 -5 5 -8 10 -5 5 3 12 -1 15 -10 4 -11 14 -14 35 -9 16 3
32 2 35 -3 3 -6 -2 -8 -13 -5 -10 3 -22 -1 -26 -9 -5 -7 -5 -10 0 -6 4 4 20 1
35 -7 20 -10 30 -11 39 -2 8 8 11 8 11 -2 0 -7 6 -11 14 -8 11 5 13 0 6 -21
-15 -52 -17 -57 -13 -49 3 4 10 7 16 7 6 0 -2 -14 -18 -30 -16 -17 -32 -30
-37 -30 -4 0 -21 -8 -38 -19 l-31 -18 153 -88 c198 -114 243 -140 363 -210 55
-32 130 -75 167 -96 37 -21 82 -47 100 -58 440 -253 458 -261 613 -266 186 -7
248 13 485 151 91 53 179 104 195 114 17 10 71 41 120 70 50 29 110 64 135 78
25 14 149 86 275 160 127 74 264 154 305 177 41 23 111 64 155 90 44 26 98 58
120 70 22 13 162 94 310 180 149 87 279 163 290 169 200 112 354 207 385 237
36 35 60 88 60 132 0 35 -40 105 -77 135 -21 16 -177 109 -348 207 -376 216
-329 189 -565 325 -107 62 -253 147 -325 188 -71 41 -204 117 -295 170 -91 52
-188 108 -217 124 -29 16 -76 44 -105 63 -29 19 -55 35 -59 35 -7 0 -151 82
-216 123 -24 15 -45 27 -47 27 -3 0 -29 14 -58 31 -29 18 -154 90 -278 162
-553 320 -564 326 -665 381 -38 21 -74 42 -80 46 -17 13 -205 120 -211 120 -3
0 -25 14 -50 30 -24 17 -44 27 -44 23 0 -4 -4 -3 -8 3 -4 6 -27 22 -52 36 -25
14 -61 35 -80 46 -19 12 -55 32 -80 44 -25 12 -46 26 -48 30 -2 4 -10 8 -18 8
-8 0 -24 9 -36 20 -12 11 -28 20 -36 20 -8 0 -21 8 -29 18 -10 11 -12 12 -8 2
6 -13 5 -13 -7 0 -7 8 -20 16 -28 18 -8 2 -22 9 -30 16 -8 8 -20 12 -26 9 -6
-2 -17 3 -24 12 -17 21 -40 19 -40 -4z m723 -1344 c-4 -7 5 -4 20 6 25 16 29
16 52 1 23 -15 25 -15 19 0 -5 12 -2 15 10 10 9 -3 13 -10 10 -16 -3 -5 5 -19
18 -30 15 -14 17 -19 6 -15 -9 3 -18 2 -20 -3 -2 -5 -17 -10 -35 -12 -17 -1
-30 -5 -27 -9 6 -10 -19 -28 -44 -32 -12 -2 -29 -12 -38 -23 -8 -10 -13 -13
-9 -7 4 9 1 11 -9 7 -14 -5 -21 -23 -17 -46 1 -7 -20 -5 -34 4 -6 4 -20 -4
-33 -17 -31 -33 -58 -36 -88 -12 l-27 20 12 -21 c10 -18 9 -21 -4 -16 -18 7
-20 55 -3 72 7 7 20 12 31 12 21 0 49 24 40 34 -6 6 28 10 54 7 6 -1 14 3 18
9 3 6 -3 10 -16 10 -33 0 -13 14 23 16 17 1 33 6 37 11 3 5 14 12 24 16 9 3
17 16 17 27 0 12 5 18 10 15 6 -4 7 -12 3 -18z m-73 -27 c-8 -5 -19 -10 -25
-10 -5 0 -3 5 5 10 8 5 20 10 25 10 6 0 3 -5 -5 -10z m544 -197 c4 -5 13 -8
19 -8 7 0 13 -10 15 -21 3 -18 -4 -23 -33 -28 -26 -5 -35 -12 -33 -24 2 -9 -5
-18 -16 -20 -10 -2 -16 0 -13 5 3 5 -7 14 -24 20 -33 13 -39 4 -9 -15 12 -7
18 -17 14 -23 -3 -6 -8 -8 -11 -5 -3 3 -12 -1 -20 -9 -8 -8 -26 -15 -40 -15
-19 0 -24 -4 -19 -16 3 -8 2 -12 -4 -9 -6 3 -13 0 -15 -8 -7 -16 -95 -23 -95
-7 0 5 -6 9 -12 8 -7 -2 -14 7 -16 19 -3 18 3 24 25 28 15 4 36 11 47 16 12 7
16 7 12 0 -4 -5 -1 -13 5 -16 7 -5 10 2 7 20 -2 22 2 29 16 31 47 7 66 15 66
30 0 12 9 15 37 12 28 -2 38 1 39 12 2 28 4 30 27 30 13 0 27 -3 31 -7z m390
-225 c16 -23 6 -48 -19 -48 -13 0 -101 -45 -122 -62 -7 -6 -13 -8 -13 -5 0 3
-12 -5 -26 -18 -15 -14 -30 -23 -33 -20 -4 2 -15 -7 -25 -20 -14 -18 -25 -23
-49 -20 -60 8 -82 70 -32 89 9 3 13 2 10 -4 -3 -6 1 -10 9 -10 8 0 17 8 20 18
7 21 52 27 75 10 14 -11 14 -11 3 4 -8 10 -9 19 -3 22 12 8 41 -3 41 -16 0 -5
-5 -6 -12 -2 -7 4 -8 3 -4 -4 4 -6 14 -8 22 -5 11 4 12 9 5 16 -18 18 -12 47
12 56 12 5 27 6 32 3 6 -3 7 -2 3 2 -13 15 17 35 54 36 27 0 41 -6 52 -22z
m-2038 -165 c-11 -11 -19 6 -11 24 8 17 8 17 12 0 3 -10 2 -21 -1 -24z m2706
-75 c-7 -7 -12 -8 -12 -2 0 14 12 26 19 19 2 -3 -1 -11 -7 -17z m-3102 -188
c0 -13 -7 -20 -20 -20 -13 0 -20 7 -20 20 0 13 7 20 20 20 13 0 20 -7 20 -20z
m-30 -70 c-18 -12 -30 -13 -30 -2 0 4 10 9 22 9 18 2 20 0 8 -7z m-91 -199
c-15 -5 -22 6 -14 19 6 9 10 9 16 -1 5 -8 4 -15 -2 -18z m236 -171 c-11 -5
-27 -9 -35 -9 -9 0 -8 4 5 9 11 5 27 9 35 9 9 0 8 -4 -5 -9z m95 -109 c0 -5
-7 -11 -14 -14 -10 -4 -13 -1 -9 9 6 15 23 19 23 5z m62 -26 c3 -14 1 -25 -3
-25 -5 0 -9 3 -9 8 0 4 -3 18 -7 31 -4 16 -2 22 4 18 6 -4 13 -18 15 -32z
m708 -465 c0 -5 -2 -10 -4 -10 -3 0 -8 5 -11 10 -3 6 -1 10 4 10 6 0 11 -4 11
-10z"/>
<path d="M4229 5969 c-10 -6 -7 -9 14 -9 29 0 35 5 14 13 -8 3 -20 1 -28 -4z"/>
<path d="M4265 5400 c-4 -6 -11 -7 -17 -4 -7 4 -8 2 -4 -5 6 -9 11 -9 22 0 14
11 18 19 10 19 -3 0 -8 -5 -11 -10z"/>
<path d="M5370 5250 c0 -5 5 -10 11 -10 5 0 7 5 4 10 -3 6 -8 10 -11 10 -2 0
-4 -4 -4 -10z"/>
<path d="M5425 5199 c9 -31 7 -29 38 -31 18 -2 27 -8 27 -20 0 -19 39 -36 49
-21 3 6 13 13 21 16 8 4 0 4 -17 1 -32 -5 -47 9 -20 19 6 3 2 6 -11 6 -16 1
-21 5 -16 14 5 9 4 9 -6 0 -10 -9 -16 -9 -26 0 -46 41 -47 41 -39 16z"/>
<path d="M5331 5104 c0 -11 3 -14 6 -6 3 7 2 16 -1 19 -3 4 -6 -2 -5 -13z"/>
<path d="M4360 5030 c0 -5 5 -10 10 -10 6 0 10 5 10 10 0 6 -4 10 -10 10 -5 0
-10 -4 -10 -10z"/>
<path d="M5085 4970 c-3 -5 -1 -10 4 -10 6 0 11 5 11 10 0 6 -2 10 -4 10 -3 0
-8 -4 -11 -10z"/>
<path d="M4960 4918 c0 -4 4 -8 9 -8 6 0 12 4 15 8 3 5 -1 9 -9 9 -8 0 -15 -4
-15 -9z"/>
<path d="M5080 4865 c0 -8 7 -15 15 -15 8 0 15 7 15 15 0 8 -7 15 -15 15 -8 0
-15 -7 -15 -15z"/>
<path d="M5190 4860 c0 -5 -9 -10 -21 -10 -11 0 -27 -7 -35 -15 -14 -13 -14
-17 1 -31 9 -9 19 -13 23 -9 4 4 1 10 -5 12 -7 3 -13 9 -13 14 0 14 48 11 53
-3 3 -7 6 2 6 20 1 17 -1 32 -4 32 -3 0 -5 -4 -5 -10z"/>
<path d="M4822 4835 c-11 -12 -10 -15 3 -15 8 0 15 7 15 15 0 18 -2 18 -18 0z"/>
<path d="M4984 4808 c-3 -5 7 -13 21 -20 22 -10 28 -9 36 3 5 8 9 17 9 20 0 9
-61 5 -66 -3z"/>
<path d="M4760 4772 c0 -23 4 -42 9 -42 6 0 7 17 4 38 -8 51 -13 53 -13 4z"/>
<path d="M4799 4749 c-8 -38 -7 -41 12 -36 12 3 22 0 26 -9 3 -8 14 -14 24
-14 14 0 19 7 19 25 0 17 -6 25 -17 25 -10 0 -28 3 -40 6 -13 4 -23 5 -24 3z"/>
<path d="M241 4589 c-30 -16 -57 -27 -59 -24 -16 16 -129 -81 -158 -137 -26
-50 -22 -128 9 -180 42 -72 15 -54 487 -330 169 -99 911 -530 1050 -610 52
-30 277 -161 500 -290 223 -129 425 -246 450 -260 25 -14 80 -46 123 -72 43
-25 80 -46 82 -46 3 0 28 -15 57 -33 29 -19 78 -47 108 -64 30 -17 118 -67
194 -112 196 -116 244 -139 344 -162 108 -26 273 -29 382 -5 41 9 111 34 155
56 77 38 90 45 146 82 29 19 3 31 284 -132 55 -32 114 -67 132 -77 130 -74
637 -368 716 -415 54 -32 100 -58 103 -58 3 0 18 -8 32 -18 15 -11 52 -33 82
-49 30 -17 104 -59 163 -93 181 -104 352 -143 535 -121 160 20 202 39 587 266
66 39 257 151 425 249 168 98 314 183 325 189 10 7 37 22 58 35 21 13 53 31
71 42 18 10 44 24 57 32 13 7 26 15 29 18 8 8 39 26 97 56 29 15 50 32 46 37
-4 6 0 8 10 4 9 -3 18 0 21 9 3 8 15 14 27 14 15 0 19 4 15 15 -3 9 -1 15 7
14 32 -4 39 2 35 26 -3 14 -1 25 3 25 5 0 9 -7 9 -15 0 -23 17 -18 24 8 7 20
8 20 15 4 6 -17 8 -18 20 -3 8 9 11 19 7 23 -3 3 -6 1 -6 -6 0 -7 -5 -9 -12
-5 -7 4 -55 7 -106 5 -52 -1 -98 1 -101 6 -3 4 -72 7 -153 5 -120 -3 -148 -6
-148 -18 0 -8 -9 -14 -21 -14 -12 0 -23 -8 -26 -20 -6 -23 -33 -27 -33 -5 0 8
5 15 10 15 6 0 10 7 10 15 0 9 -6 12 -15 8 -9 -3 -22 2 -31 13 -11 14 -14 15
-13 4 4 -39 -2 -80 -11 -80 -5 0 -10 5 -10 11 0 6 -7 17 -15 25 -13 13 -18 13
-47 -2 -46 -24 -57 -38 -52 -65 3 -16 2 -19 -3 -8 -7 15 -13 15 -63 2 -30 -7
-66 -22 -80 -32 -14 -10 -41 -26 -60 -36 -42 -22 -61 -40 -52 -50 4 -5 -1 -5
-10 -2 -17 6 -159 -66 -166 -84 -2 -5 -9 -9 -15 -9 -7 0 -61 -29 -121 -65 -60
-36 -111 -65 -112 -65 -2 0 -43 -23 -91 -52 -151 -89 -258 -118 -432 -119
-162 0 -290 33 -411 106 -30 18 -71 42 -90 53 -19 10 -73 42 -120 69 -47 27
-114 66 -150 87 -36 20 -72 41 -80 46 -33 21 -226 133 -245 141 -11 5 -32 17
-47 27 -15 9 -75 45 -135 80 -59 34 -146 84 -192 111 l-83 48 -80 -46 c-121
-70 -162 -90 -176 -86 -7 3 -11 1 -8 -4 8 -12 -18 -21 -43 -14 -24 6 -27 19
-7 30 11 6 11 10 2 19 -10 9 -16 7 -25 -8 -10 -16 -10 -18 0 -13 8 5 10 4 5
-3 -5 -9 -12 -8 -26 1 -11 6 -20 15 -20 19 0 5 -6 8 -14 8 -8 0 -17 7 -20 16
-3 8 -9 13 -14 10 -4 -2 -14 0 -22 5 -13 8 -13 10 0 20 12 8 10 9 -8 4 -15 -4
-35 1 -57 14 -19 11 -52 25 -73 30 -21 6 -52 23 -70 38 -17 16 -83 55 -147 87
-65 33 -122 67 -128 77 -6 9 -17 15 -24 12 -7 -3 -13 -1 -13 4 0 11 -53 43
-72 43 -10 0 -9 -3 2 -10 9 -6 10 -10 3 -10 -12 0 -28 19 -28 34 0 5 -6 11
-12 14 -7 2 -13 -1 -13 -7 0 -6 -21 1 -47 15 -26 13 -54 22 -61 19 -13 -5 -13
-3 -1 12 8 9 9 14 3 10 -6 -4 -19 2 -29 13 -10 11 -24 20 -31 20 -8 0 -28 9
-46 20 -18 11 -42 20 -52 20 -11 0 -16 3 -13 7 8 7 -47 35 -77 38 -11 1 -28
12 -38 25 -10 12 -18 19 -18 14 0 -4 -5 -3 -12 4 -7 7 -19 12 -28 12 -9 0 -32
14 -50 30 -33 29 -57 40 -45 20 3 -5 0 -7 -8 -4 -8 3 -17 14 -20 26 -5 17 -11
19 -39 13 -21 -4 -28 -3 -20 3 11 7 9 11 -8 15 -12 3 -20 10 -16 15 3 5 -11 8
-30 7 -20 0 -38 3 -41 9 -4 5 -1 6 7 1 8 -5 11 -3 8 6 -3 8 -9 14 -14 14 -12
0 -78 27 -84 35 -3 3 -20 12 -37 19 -18 8 -33 19 -33 27 0 8 -6 11 -15 8 -8
-3 -26 4 -41 15 -15 12 -31 21 -37 21 -6 0 -21 10 -34 22 -14 13 -36 21 -55
21 -18 0 -27 2 -21 4 15 5 2 19 -35 41 -28 16 -30 15 -35 -5 -4 -14 -5 -13 -6
4 -1 16 -6 21 -16 17 -9 -4 -15 0 -15 9 0 16 -27 30 -41 21 -5 -3 -9 0 -9 5 0
6 -8 11 -18 11 -10 0 -24 9 -32 20 -8 10 -27 22 -42 25 -15 4 -28 11 -28 16 0
5 -7 9 -15 9 -8 0 -15 4 -15 10 0 5 -16 14 -36 19 -19 5 -50 21 -68 35 -18 13
-66 41 -107 60 -109 53 -168 89 -163 98 3 4 -3 5 -12 1 -12 -4 -15 -3 -10 5 4
7 2 12 -4 12 -7 0 -23 9 -37 20 -14 11 -31 20 -37 20 -6 0 -4 -5 4 -10 9 -6
10 -10 3 -10 -7 0 -16 6 -20 13 -10 15 -127 77 -147 77 -8 0 -19 6 -23 14 -4
8 -30 26 -58 41 -27 16 -52 31 -55 34 -9 11 -110 61 -122 61 -6 0 -19 7 -29
16 -15 14 -22 14 -61 1 -51 -18 -59 -14 -27 12 13 11 22 21 19 24 -11 10 -117
73 -145 87 -16 8 -41 22 -55 31 -30 20 -136 78 -248 136 -45 23 -97 53 -115
67 -18 14 -46 31 -62 39 -46 20 -95 51 -95 60 0 13 -23 6 -79 -24z"/>
<path d="M3541 3668 c-11 -29 -3 -38 13 -16 7 10 16 15 19 11 4 -3 7 1 7 10 0
25 -29 21 -39 -5z"/>
<path d="M3732 3501 c1 -23 4 -44 8 -46 7 -4 2 77 -6 84 -2 2 -3 -15 -2 -38z"/>
<path d="M3964 3395 c1 -8 5 -17 8 -21 4 -3 4 -12 2 -19 -3 -7 -2 -15 3 -18 4
-3 9 6 9 19 1 13 -3 24 -10 24 -7 0 -6 3 2 9 11 7 11 9 -1 14 -9 3 -14 0 -13
-8z"/>
<path d="M4730 2854 c0 -8 -4 -13 -8 -10 -5 3 -9 -1 -9 -8 0 -8 6 -12 14 -9 7
3 13 10 13 17 0 6 5 4 10 -4 11 -17 13 -10 4 14 -8 21 -24 21 -24 0z"/>
<path d="M7650 2586 c7 -7 13 -7 20 0 6 6 3 10 -10 10 -13 0 -16 -4 -10 -10z"/>
<path d="M8165 2575 c-10 -13 -24 -21 -29 -18 -5 3 -6 1 -2 -5 8 -14 42 4 51
27 9 22 2 21 -20 -4z"/>
<path d="M7856 2564 c-9 -24 -7 -31 4 -14 5 8 10 10 10 3 0 -13 25 -12 37 2 4
4 3 5 -4 2 -6 -4 -18 -1 -26 8 -13 13 -16 13 -21 -1z"/>
<path d="M7460 2540 c-9 -6 -10 -10 -3 -10 6 0 15 5 18 10 8 12 4 12 -15 0z"/>
<path d="M7980 2540 c0 -5 7 -7 15 -4 8 4 15 8 15 10 0 2 -7 4 -15 4 -8 0 -15
-4 -15 -10z"/>
<path d="M8094 2518 c-4 -6 -3 -8 4 -4 5 3 12 1 14 -6 3 -8 7 -6 11 5 7 20
-17 24 -29 5z"/>
<path d="M7805 2510 c19 -8 73 -14 64 -6 -2 2 -22 6 -44 9 -28 5 -34 4 -20 -3z"/>
<path d="M4206 2488 c3 -4 9 -8 15 -8 5 0 9 4 9 8 0 5 -7 9 -15 9 -8 0 -12 -4
-9 -9z"/>
<path d="M8075 2490 c-3 -6 1 -7 9 -4 18 7 21 14 7 14 -6 0 -13 -4 -16 -10z"/>
<path d="M7225 2400 c-3 -5 -1 -10 4 -10 6 0 11 5 11 10 0 6 -2 10 -4 10 -3 0
-8 -4 -11 -10z"/>
</g>
</svg>
